# xmcd
#
# Track frame offsets:
#	150
#	4710
#	22728
#	38673
#	55635
#	85113
#	107750
#	124618
#	147630
#	167500
#	195980
#	217110
#	238753
#
# Disc length: 3916 seconds
#
# Revision: 0
# Processed by: cddbd v1.4PL0 Copyright (c) Steve Scherf et al.
# Submitted via: AudioConverter v4.01 Copyright (c) Dennis Rebentrost
#
DISCID=a00f4a0d
DTITLE=_M_Q - - M_Q-_____W_L`
DYEAR=2001
DGENRE=R&B
TTITLE0=___y  1
TTITLE1=___y  2
TTITLE2=___y  3
TTITLE3=___y  4
TTITLE4=___y  5
TTITLE5=___y  6
TTITLE6=___y  7
TTITLE7=___y  8
TTITLE8=___y  9
TTITLE9=___y  10
TTITLE10=___y  11
TTITLE11=___y  12
TTITLE12=___y  13
EXTD=
EXTT0=
EXTT1=
EXTT2=
EXTT3=
EXTT4=
EXTT5=
EXTT6=
EXTT7=
EXTT8=
EXTT9=
EXTT10=
EXTT11=
EXTT12=
PLAYORDER=
